<svg xmlns="http://www.w3.org/2000/svg" viewBox="268 177 480 629">
  <style>
    .ink { fill: #090a0a }
    .ink-line { fill: none; stroke: #090a0a }
    @media (prefers-color-scheme: dark) {
      .ink { fill: #f3f4ef }
      .ink-line { stroke: #f3f4ef }
    }
  </style>
  <path class="ink-line" d="M 330,210 L 620,210 L 720,310 L 720,740 Q 720,790 670,790 L 330,790 Q 280,790 280,740 L 280,260 Q 280,210 330,210 Z" stroke-width="16" stroke-linejoin="round"/>
  <path class="ink" d="M 373.02,465.2 L 626.98,465.2 Q 649.6,465.2 649.6,487.82 Q 649.6,510.44 626.98,510.44 L 373.02,510.44 Q 350.4,510.44 350.4,487.82 Q 350.4,465.2 373.02,465.2 Z"/>
  <g transform="translate(482.4,580.62) rotate(-3)"><path d="M -151.056,-52.026 L 151.056,-52.026 Q 178.2,-52.026 178.2,-24.882 L 178.2,24.882 Q 178.2,52.026 151.056,52.026 L -151.056,52.026 Q -178.2,52.026 -178.2,24.882 L -178.2,-24.882 Q -178.2,-52.026 -151.056,-52.026 Z" fill="#e9a03a"/></g>
  <path class="ink" d="M 373.02,558 L 591.78,558 Q 614.4,558 614.4,580.62 Q 614.4,603.24 591.78,603.24 L 373.02,603.24 Q 350.4,603.24 350.4,580.62 Q 350.4,558 373.02,558 Z"/>
  <path class="ink" d="M 373.02,650.8 L 547.78,650.8 Q 570.4,650.8 570.4,673.42 Q 570.4,696.04 547.78,696.04 L 373.02,696.04 Q 350.4,696.04 350.4,673.42 Q 350.4,650.8 373.02,650.8 Z"/>
  <g transform="translate(648.06,189.19) rotate(9)"><path class="ink-line" d="M 0,0 L 88,0 L 88,88 Z" stroke-width="13.6" stroke-linejoin="round"/></g>
</svg>
